<?xml version="1.0" standalone="no"?>
<!DOCTYPE svg PUBLIC "-//W3C//DTD SVG 20010904//EN"
"http://www.w3.org/TR/2001/REC-SVG-20010904/DTD/svg10.dtd">
<svg version="1.0" xmlns="http://www.w3.org/2000/svg"
width="500.000000pt" height="500.000000pt" viewBox="0 0 500.000000 500.000000"
preserveAspectRatio="xMidYMid meet">

<g transform="translate(0.000000,500.000000) scale(0.100000,-0.100000)"
fill="#ffffff" stroke="none">
<path d="M2314 3664 c-98 -103 -197 -210 -220 -240 -45 -57 -98 -143 -92 -149
1 -2 32 -20 68 -41 64 -37 179 -113 232 -154 l27 -21 73 110 c69 104 95 130
117 116 5 -3 42 -54 82 -113 40 -59 74 -109 76 -111 2 -3 16 7 31 21 32 30
119 88 220 147 39 24 72 48 72 55 0 18 -73 125 -130 191 -66 76 -361 375 -371
375 -3 0 -87 -84 -185 -186z"/>
<path d="M1619 3363 c-12 -100 43 -472 91 -619 l20 -60 113 -38 c61 -21 145
-53 186 -72 78 -36 91 -34 91 12 0 33 48 190 76 253 14 31 39 78 56 104 29 46
30 48 13 67 -53 59 -312 211 -531 313 -104 49 -113 52 -115 40z"/>
<path d="M3167 3271 c-175 -88 -405 -227 -434 -263 -8 -10 0 -31 32 -86 47
-80 110 -257 121 -340 l7 -52 31 19 c31 19 191 82 296 118 51 17 56 21 72 66
37 98 78 344 93 550 6 71 4 87 -7 87 -8 0 -103 -44 -211 -99z"/>
<path d="M2459 3118 c-184 -269 -228 -358 -264 -537 l-17 -81 54 -59 c91 -98
164 -260 237 -525 16 -59 32 -110 34 -112 2 -2 11 29 21 69 66 260 160 477
248 568 l50 53 -5 56 c-8 72 -40 176 -83 267 -29 60 -196 326 -224 356 -4 5
-27 -20 -51 -55z"/>
<path d="M1210 3125 c0 -8 -7 -89 -15 -179 -17 -183 -11 -262 26 -359 l21 -55
70 -7 c38 -4 72 -5 74 -2 3 3 -4 49 -15 103 -21 104 -17 134 19 134 11 0 68
-11 126 -25 132 -31 128 -31 118 3 -4 15 -19 78 -33 141 l-26 114 -160 64
c-88 36 -170 69 -182 73 -18 7 -23 6 -23 -5z"/>
<path d="M3600 3062 c-91 -36 -167 -67 -168 -68 -2 -1 -12 -44 -22 -96 -10
-51 -25 -114 -33 -140 -8 -27 -12 -48 -9 -48 4 0 62 12 130 27 115 25 123 26
139 10 16 -16 16 -24 -4 -124 -11 -60 -20 -108 -19 -108 0 -1 34 3 74 8 l74 9
18 42 c34 81 43 153 36 295 -4 74 -9 138 -11 141 -2 3 -5 32 -6 63 -2 45 -6
57 -18 56 -9 0 -90 -30 -181 -67z"/>
<path d="M1446 2643 c85 -369 167 -590 260 -692 58 -65 185 -161 266 -202 123
-62 310 -109 436 -109 60 0 58 -20 15 155 -71 291 -164 515 -249 600 -87 87
-289 172 -567 239 -179 43 -169 42 -161 9z"/>
<path d="M3380 2629 c-266 -67 -443 -140 -533 -219 -98 -87 -187 -293 -267
-620 -16 -68 -30 -128 -30 -132 0 -12 58 -9 161 8 308 53 559 199 657 382 46
85 106 258 153 437 42 163 45 185 27 184 -7 0 -83 -18 -168 -40z"/>
<path d="M1070 2429 c77 -197 185 -374 281 -463 86 -80 229 -147 414 -195 l40
-10 -45 36 c-143 116 -217 238 -300 492 l-47 146 -114 17 c-63 9 -144 19 -182
23 l-68 7 21 -53z"/>
<path d="M3880 2474 c-8 -1 -77 -10 -152 -20 l-138 -17 -11 -41 c-29 -109 -86
-260 -131 -348 -56 -109 -114 -181 -203 -246 -66 -48 -66 -48 82 -6 105 30
238 94 302 145 57 44 139 150 193 249 41 73 128 265 128 280 0 9 -36 12 -70 4z"/>
<path d="M1820 1619 c-91 -116 -130 -232 -130 -396 0 -51 2 -93 3 -93 7 0 374
128 424 149 113 44 223 140 276 239 l28 52 -54 0 c-75 0 -202 25 -300 60 -45
16 -110 32 -143 35 l-62 7 -42 -53z"/>
<path d="M3000 1655 c-41 -7 -120 -24 -175 -39 -55 -15 -132 -29 -172 -33
l-72 -6 26 -51 c33 -65 153 -186 218 -218 28 -14 142 -58 255 -98 113 -40 211
-75 218 -77 9 -4 12 22 12 112 0 98 -4 128 -25 191 -28 82 -58 135 -112 194
-40 45 -48 46 -173 25z"/>
</g>
</svg>
